<svg xmlns="http://www.w3.org/2000/svg" width="13" height="13" viewBox="0 0 13 13">
    <path fill="#A8B2B9" fill-rule="nonzero" d="M9.506 7.922A5.153 5.153 0 0 0 5.163 0 5.154 5.154 0 0 0 .01 5.156a5.153 5.153 0 0 0 7.95 4.33l.233-.163L11.869 13l1.141-1.161-3.673-3.677.17-.24zM7.57 2.754c.64.64.993 1.493.993 2.399a3.37 3.37 0 0 1-.993 2.398 3.37 3.37 0 0 1-2.4.994 3.37 3.37 0 0 1-2.398-.994 3.37 3.37 0 0 1-.993-2.398c0-.906.352-1.759.993-2.4A3.37 3.37 0 0 1 5.17 1.76a3.37 3.37 0 0 1 2.399.994z"/>
</svg>
